<?xml version="1.0" encoding="UTF-8" standalone="no"?>
<!-- Created with Inkscape (http://www.inkscape.org/) -->

<svg
   xmlns:dc="http://purl.org/dc/elements/1.1/"
   xmlns:cc="http://creativecommons.org/ns#"
   xmlns:rdf="http://www.w3.org/1999/02/22-rdf-syntax-ns#"
   xmlns:svg="http://www.w3.org/2000/svg"
   xmlns="http://www.w3.org/2000/svg"
   xmlns:sodipodi="http://sodipodi.sourceforge.net/DTD/sodipodi-0.dtd"
   xmlns:inkscape="http://www.inkscape.org/namespaces/inkscape"
   width="930.99872"
   height="752.87506"
   id="svg2"
   version="1.1"
   inkscape:version="0.91 r13725"
   sodipodi:docname="blockchain-bitcoin-noname.svg"
   inkscape:export-filename="C:\y12\plan2014\svg\in-what-we-trust\in-math-we-trust.png"
   inkscape:export-xdpi="90"
   inkscape:export-ydpi="90">
  <defs
     id="defs4" />
  <sodipodi:namedview
     id="base"
     pagecolor="#ffffff"
     bordercolor="#666666"
     borderopacity="1.0"
     inkscape:pageopacity="0.0"
     inkscape:pageshadow="2"
     inkscape:zoom="1.0586086"
     inkscape:cx="465.49936"
     inkscape:cy="376.43753"
     inkscape:document-units="px"
     inkscape:current-layer="layer1"
     showgrid="false"
     width="1600px"
     inkscape:window-width="1732"
     inkscape:window-height="954"
     inkscape:window-x="25"
     inkscape:window-y="25"
     inkscape:window-maximized="0"
     borderlayer="true"
     fit-margin-top="0"
     fit-margin-left="0"
     fit-margin-right="0"
     fit-margin-bottom="0" />
  <metadata
     id="metadata7">
    <rdf:RDF>
      <cc:Work
         rdf:about="">
        <dc:format>image/svg+xml</dc:format>
        <dc:type
           rdf:resource="http://purl.org/dc/dcmitype/StillImage" />
        <dc:title></dc:title>
      </cc:Work>
    </rdf:RDF>
  </metadata>
  <g
     inkscape:label="Layer 1"
     inkscape:groupmode="layer"
     id="layer1"
     transform="translate(-200.69417,-183.12341)">
    <g
       id="layer1-9-7"
       inkscape:label="Layer 1"
       transform="matrix(-0.00123154,-0.13244363,0.13244363,-0.00123154,442.58547,386.29167)"
       style="fill:#000000;fill-opacity:1">
      <path
         d="m 209.86028,40.567393 0,136.312497 -137.812496,0 0,19.78125 c 87.499906,5.20833 99.999996,16.66675 99.999996,93.75 l 0,462.5 c 0,77.08326 -13.54175,90.625 -99.999996,93.75 l 0,19.78125 137.812496,0 0,145.34371 68.40625,0 0,-145.34371 60.6875,0 0,145.34371 68.40625,0 0,-145.34371 12.59375,0 c 202.08312,0 252.09375,-112.50008 252.09375,-187.5 0,-135.41652 -136.45838,-164.58335 -178.125,-175 36.45829,-9.37499 142.6875,-30.20845 142.6875,-150 0,-106.83909 -77.755,-166.48726 -229.25,-175.78125 l 0,-137.593747 -68.40625,0 0,136.312497 -60.6875,0 0,-136.312497 -68.40625,0 z m 91.34375,174.843747 45.84375,0 c 119.79154,0 183.3125,50.01051 183.3125,142.71875 0,81.24992 -55.20843,127.0625 -153.125,127.0625 l -98.9375,0 0,-238.53125 c 0,-21.87498 7.28127,-31.25 22.90625,-31.25 z m -22.90625,311.46875 c 138.54152,0 273.9375,6.25015 273.9375,153.125 0,122.91654 -94.77095,147.90625 -208.3125,147.90625 -51.04161,0 -65.625,-9.38545 -65.625,-42.71875 l 0,-258.3125 z"
         id="path3022-0"
         inkscape:connector-curvature="0"
         style="font-style:normal;font-variant:normal;font-weight:normal;font-stretch:normal;font-size:1121.49536133px;line-height:125%;font-family:FreeSerif;-inkscape-font-specification:FreeSerif;letter-spacing:0px;word-spacing:0px;fill:#000000;fill-opacity:1;stroke:none" />
      <g
         id="text3024-4"
         style="font-style:normal;font-variant:normal;font-weight:normal;font-stretch:normal;font-size:1041.66662598px;line-height:125%;font-family:FreeSerif;-inkscape-font-specification:FreeSerif;letter-spacing:0px;word-spacing:0px;fill:#000000;fill-opacity:1;stroke:none" />
    </g>
    <rect
       style="opacity:1;fill:#000000;fill-opacity:1;stroke:#000000;stroke-width:1.95693815;stroke-miterlimit:4;stroke-dasharray:none;stroke-dashoffset:0;stroke-opacity:1"
       id="rect4144"
       width="219.77881"
       height="212.31059"
       x="573.83771"
       y="184.10188" />
    <rect
       style="opacity:1;fill:#000000;fill-opacity:1;stroke:#000000;stroke-width:2.08700848;stroke-miterlimit:4;stroke-dasharray:none;stroke-dashoffset:0;stroke-opacity:1"
       id="rect4144-2"
       width="203.58994"
       height="260.67264"
       x="245.98677"
       y="254.28951" />
    <rect
       style="opacity:1;fill:#000000;fill-opacity:1;stroke:#000000;stroke-width:1.85279274;stroke-miterlimit:4;stroke-dasharray:none;stroke-dashoffset:0;stroke-opacity:1"
       id="rect4144-2-6-5"
       width="219.88295"
       height="190.22403"
       x="546.19843"
       y="722.65735" />
    <rect
       style="opacity:1;fill:#000000;fill-opacity:1;stroke:#000000;stroke-width:2.20462227;stroke-miterlimit:4;stroke-dasharray:none;stroke-dashoffset:0;stroke-opacity:1"
       id="rect4144-2-6-0"
       width="219.53113"
       height="269.75876"
       x="885.83093"
       y="595.96747" />
    <rect
       style="opacity:1;fill:#000000;fill-opacity:1;stroke:#000000;stroke-width:2.24909806;stroke-miterlimit:4;stroke-dasharray:none;stroke-dashoffset:0;stroke-opacity:1"
       id="rect4144-2-6-08"
       width="219.48665"
       height="280.80963"
       x="911.08167"
       y="201.00009" />
    <rect
       style="opacity:1;fill:#000000;fill-opacity:1;stroke:#000000;stroke-width:1.8846457;stroke-miterlimit:4;stroke-dasharray:none;stroke-dashoffset:0;stroke-opacity:1"
       id="rect4144-2-6-9"
       width="219.8511"
       height="196.8494"
       x="205.41504"
       y="625.70404" />
    <g
       id="layer1-9-7-0"
       inkscape:label="Layer 1"
       transform="matrix(-0.00123154,0.13244363,0.13244363,0.00123154,784.24421,281.01779)"
       style="fill:#000000;fill-opacity:1">
      <path
         d="m 209.86028,40.567393 0,136.312497 -137.812496,0 0,19.78125 c 87.499906,5.20833 99.999996,16.66675 99.999996,93.75 l 0,462.5 c 0,77.08326 -13.54175,90.625 -99.999996,93.75 l 0,19.78125 137.812496,0 0,145.34371 68.40625,0 0,-145.34371 60.6875,0 0,145.34371 68.40625,0 0,-145.34371 12.59375,0 c 202.08312,0 252.09375,-112.50008 252.09375,-187.5 0,-135.41652 -136.45838,-164.58335 -178.125,-175 36.45829,-9.37499 142.6875,-30.20845 142.6875,-150 0,-106.83909 -77.755,-166.48726 -229.25,-175.78125 l 0,-137.593747 -68.40625,0 0,136.312497 -60.6875,0 0,-136.312497 -68.40625,0 z m 91.34375,174.843747 45.84375,0 c 119.79154,0 183.3125,50.01051 183.3125,142.71875 0,81.24992 -55.20843,127.0625 -153.125,127.0625 l -98.9375,0 0,-238.53125 c 0,-21.87498 7.28127,-31.25 22.90625,-31.25 z m -22.90625,311.46875 c 138.54152,0 273.9375,6.25015 273.9375,153.125 0,122.91654 -94.77095,147.90625 -208.3125,147.90625 -51.04161,0 -65.625,-9.38545 -65.625,-42.71875 l 0,-258.3125 z"
         id="path3022-0-8"
         inkscape:connector-curvature="0"
         style="font-style:normal;font-variant:normal;font-weight:normal;font-stretch:normal;font-size:1121.49536133px;line-height:125%;font-family:FreeSerif;-inkscape-font-specification:FreeSerif;letter-spacing:0px;word-spacing:0px;fill:#000000;fill-opacity:1;stroke:none" />
      <g
         id="text3024-4-8"
         style="font-style:normal;font-variant:normal;font-weight:normal;font-stretch:normal;font-size:1041.66662598px;line-height:125%;font-family:FreeSerif;-inkscape-font-specification:FreeSerif;letter-spacing:0px;word-spacing:0px;fill:#000000;fill-opacity:1;stroke:none" />
    </g>
    <g
       id="layer1-9-7-04"
       inkscape:label="Layer 1"
       transform="matrix(0.13244363,-0.00123154,0.00123154,0.13244363,982.38525,468.99504)"
       style="fill:#000000;fill-opacity:1">
      <path
         d="m 209.86028,40.567393 0,136.312497 -137.812496,0 0,19.78125 c 87.499906,5.20833 99.999996,16.66675 99.999996,93.75 l 0,462.5 c 0,77.08326 -13.54175,90.625 -99.999996,93.75 l 0,19.78125 137.812496,0 0,145.34371 68.40625,0 0,-145.34371 60.6875,0 0,145.34371 68.40625,0 0,-145.34371 12.59375,0 c 202.08312,0 252.09375,-112.50008 252.09375,-187.5 0,-135.41652 -136.45838,-164.58335 -178.125,-175 36.45829,-9.37499 142.6875,-30.20845 142.6875,-150 0,-106.83909 -77.755,-166.48726 -229.25,-175.78125 l 0,-137.593747 -68.40625,0 0,136.312497 -60.6875,0 0,-136.312497 -68.40625,0 z m 91.34375,174.843747 45.84375,0 c 119.79154,0 183.3125,50.01051 183.3125,142.71875 0,81.24992 -55.20843,127.0625 -153.125,127.0625 l -98.9375,0 0,-238.53125 c 0,-21.87498 7.28127,-31.25 22.90625,-31.25 z m -22.90625,311.46875 c 138.54152,0 273.9375,6.25015 273.9375,153.125 0,122.91654 -94.77095,147.90625 -208.3125,147.90625 -51.04161,0 -65.625,-9.38545 -65.625,-42.71875 l 0,-258.3125 z"
         id="path3022-0-6"
         inkscape:connector-curvature="0"
         style="font-style:normal;font-variant:normal;font-weight:normal;font-stretch:normal;font-size:1121.49536133px;line-height:125%;font-family:FreeSerif;-inkscape-font-specification:FreeSerif;letter-spacing:0px;word-spacing:0px;fill:#000000;fill-opacity:1;stroke:none" />
      <g
         id="text3024-4-1"
         style="font-style:normal;font-variant:normal;font-weight:normal;font-stretch:normal;font-size:1041.66662598px;line-height:125%;font-family:FreeSerif;-inkscape-font-specification:FreeSerif;letter-spacing:0px;word-spacing:0px;fill:#000000;fill-opacity:1;stroke:none" />
    </g>
    <g
       id="layer1-9-7-4"
       inkscape:label="Layer 1"
       transform="matrix(-0.00123154,-0.13244363,0.13244363,-0.00123154,757.61536,818.8899)"
       style="fill:#000000;fill-opacity:1">
      <path
         d="m 209.86028,40.567393 0,136.312497 -137.812496,0 0,19.78125 c 87.499906,5.20833 99.999996,16.66675 99.999996,93.75 l 0,462.5 c 0,77.08326 -13.54175,90.625 -99.999996,93.75 l 0,19.78125 137.812496,0 0,145.34371 68.40625,0 0,-145.34371 60.6875,0 0,145.34371 68.40625,0 0,-145.34371 12.59375,0 c 202.08312,0 252.09375,-112.50008 252.09375,-187.5 0,-135.41652 -136.45838,-164.58335 -178.125,-175 36.45829,-9.37499 142.6875,-30.20845 142.6875,-150 0,-106.83909 -77.755,-166.48726 -229.25,-175.78125 l 0,-137.593747 -68.40625,0 0,136.312497 -60.6875,0 0,-136.312497 -68.40625,0 z m 91.34375,174.843747 45.84375,0 c 119.79154,0 183.3125,50.01051 183.3125,142.71875 0,81.24992 -55.20843,127.0625 -153.125,127.0625 l -98.9375,0 0,-238.53125 c 0,-21.87498 7.28127,-31.25 22.90625,-31.25 z m -22.90625,311.46875 c 138.54152,0 273.9375,6.25015 273.9375,153.125 0,122.91654 -94.77095,147.90625 -208.3125,147.90625 -51.04161,0 -65.625,-9.38545 -65.625,-42.71875 l 0,-258.3125 z"
         id="path3022-0-86"
         inkscape:connector-curvature="0"
         style="font-style:normal;font-variant:normal;font-weight:normal;font-stretch:normal;font-size:1121.49536133px;line-height:125%;font-family:FreeSerif;-inkscape-font-specification:FreeSerif;letter-spacing:0px;word-spacing:0px;fill:#000000;fill-opacity:1;stroke:none" />
      <g
         id="text3024-4-2"
         style="font-style:normal;font-variant:normal;font-weight:normal;font-stretch:normal;font-size:1041.66662598px;line-height:125%;font-family:FreeSerif;-inkscape-font-specification:FreeSerif;letter-spacing:0px;word-spacing:0px;fill:#000000;fill-opacity:1;stroke:none" />
    </g>
    <g
       id="layer1-9-7-8"
       inkscape:label="Layer 1"
       transform="matrix(-0.00123154,0.13244363,0.13244363,0.00123154,414.76896,739.25586)"
       style="fill:#000000;fill-opacity:1">
      <path
         d="m 209.86028,40.567393 0,136.312497 -137.812496,0 0,19.78125 c 87.499906,5.20833 99.999996,16.66675 99.999996,93.75 l 0,462.5 c 0,77.08326 -13.54175,90.625 -99.999996,93.75 l 0,19.78125 137.812496,0 0,145.34371 68.40625,0 0,-145.34371 60.6875,0 0,145.34371 68.40625,0 0,-145.34371 12.59375,0 c 202.08312,0 252.09375,-112.50008 252.09375,-187.5 0,-135.41652 -136.45838,-164.58335 -178.125,-175 36.45829,-9.37499 142.6875,-30.20845 142.6875,-150 0,-106.83909 -77.755,-166.48726 -229.25,-175.78125 l 0,-137.593747 -68.40625,0 0,136.312497 -60.6875,0 0,-136.312497 -68.40625,0 z m 91.34375,174.843747 45.84375,0 c 119.79154,0 183.3125,50.01051 183.3125,142.71875 0,81.24992 -55.20843,127.0625 -153.125,127.0625 l -98.9375,0 0,-238.53125 c 0,-21.87498 7.28127,-31.25 22.90625,-31.25 z m -22.90625,311.46875 c 138.54152,0 273.9375,6.25015 273.9375,153.125 0,122.91654 -94.77095,147.90625 -208.3125,147.90625 -51.04161,0 -65.625,-9.38545 -65.625,-42.71875 l 0,-258.3125 z"
         id="path3022-0-0"
         inkscape:connector-curvature="0"
         style="font-style:normal;font-variant:normal;font-weight:normal;font-stretch:normal;font-size:1121.49536133px;line-height:125%;font-family:FreeSerif;-inkscape-font-specification:FreeSerif;letter-spacing:0px;word-spacing:0px;fill:#000000;fill-opacity:1;stroke:none" />
      <g
         id="text3024-4-3"
         style="font-style:normal;font-variant:normal;font-weight:normal;font-stretch:normal;font-size:1041.66662598px;line-height:125%;font-family:FreeSerif;-inkscape-font-specification:FreeSerif;letter-spacing:0px;word-spacing:0px;fill:#000000;fill-opacity:1;stroke:none" />
    </g>
    <text
       xml:space="preserve"
       style="font-style:normal;font-weight:normal;font-size:40px;line-height:125%;font-family:Sans;letter-spacing:0px;word-spacing:0px;fill:#e6e6e6;fill-opacity:1;stroke:none;stroke-width:1px;stroke-linecap:butt;stroke-linejoin:miter;stroke-opacity:1;"
       x="308.20337"
       y="432.04745"
       id="text4287"
       sodipodi:linespacing="125%"><tspan
         sodipodi:role="line"
         id="tspan4289"
         x="308.20337"
         y="432.04745">TX......</tspan></text>
    <text
       xml:space="preserve"
       style="font-style:normal;font-weight:normal;font-size:40px;line-height:125%;font-family:Sans;letter-spacing:0px;word-spacing:0px;fill:#f9f9f9;fill-opacity:1;stroke:none;stroke-width:1px;stroke-linecap:butt;stroke-linejoin:miter;stroke-opacity:1;"
       x="596.36066"
       y="376.46771"
       id="text4287-2"
       sodipodi:linespacing="125%"><tspan
         sodipodi:role="line"
         id="tspan4289-6"
         x="596.36066"
         y="376.46771">TX......</tspan></text>
    <text
       xml:space="preserve"
       style="font-style:normal;font-weight:normal;font-size:40px;line-height:125%;font-family:Sans;letter-spacing:0px;word-spacing:0px;fill:#ffffff;fill-opacity:1;stroke:none;stroke-width:1px;stroke-linecap:butt;stroke-linejoin:miter;stroke-opacity:1;"
       x="995.79333"
       y="387.56302"
       id="text4287-3"
       sodipodi:linespacing="125%"><tspan
         sodipodi:role="line"
         id="tspan4289-1"
         x="995.79333"
         y="387.56302">TX......</tspan></text>
    <text
       xml:space="preserve"
       style="font-style:normal;font-weight:normal;font-size:40px;line-height:125%;font-family:Sans;letter-spacing:0px;word-spacing:0px;fill:#cccccc;fill-opacity:1;stroke:none;stroke-width:1px;stroke-linecap:butt;stroke-linejoin:miter;stroke-opacity:1;"
       x="956.95966"
       y="658.28967"
       id="text4287-9"
       sodipodi:linespacing="125%"><tspan
         sodipodi:role="line"
         id="tspan4289-0"
         x="956.95966"
         y="658.28967">TX......</tspan></text>
    <text
       xml:space="preserve"
       style="font-style:normal;font-weight:normal;font-size:40px;line-height:125%;font-family:Sans;letter-spacing:0px;word-spacing:0px;fill:#666666;fill-opacity:1;stroke:none;stroke-width:1px;stroke-linecap:butt;stroke-linejoin:miter;stroke-opacity:1;"
       x="601.90826"
       y="862.44415"
       id="text4287-7"
       sodipodi:linespacing="125%"><tspan
         sodipodi:role="line"
         id="tspan4289-9"
         x="601.90826"
         y="862.44415">TX......</tspan></text>
    <text
       xml:space="preserve"
       style="font-style:normal;font-weight:normal;font-size:40px;line-height:125%;font-family:Sans;letter-spacing:0px;word-spacing:0px;fill:#333333;fill-opacity:1;stroke:none;stroke-width:1px;stroke-linecap:butt;stroke-linejoin:miter;stroke-opacity:1;"
       x="231.18922"
       y="764.19019"
       id="text4287-0"
       sodipodi:linespacing="125%"><tspan
         sodipodi:role="line"
         id="tspan4289-2"
         x="231.18922"
         y="764.19019">TX......</tspan></text>
    <path
       d="m 640.36881,709.32015 c -11.78961,-3.31329 -17.10816,-6.41192 -31.07281,-18.10455 -12.9284,-10.82575 -15.59774,-13.40974 -36.33919,-35.18983 -17.3471,-18.21569 -27.09992,-30.09885 -30.51075,-37.17921 -1.8538,-3.84755 -0.59337,-4.14619 3.46951,-0.8221 1.86534,1.5261 3.39151,2.483 3.39151,2.12625 0,-0.35668 -2.48864,-4.8733 -5.53028,-10.03666 -5.95834,-10.11525 -9.04099,-18.37606 -7.39124,-19.80658 0.68126,-0.59077 1.58751,-0.1661 3.05455,1.43131 7.38447,8.04092 11.81068,13.33988 13.39984,16.04134 1.00393,1.70655 2.47335,3.56924 3.26537,4.13923 0.79202,0.57001 1.44003,1.35359 1.44003,1.74123 0,0.38764 1.37505,2.39799 3.05557,4.46747 1.68061,2.06949 4.46118,5.54878 6.17905,7.73188 1.71795,2.18308 3.34931,4.14786 3.6253,4.36617 0.99552,0.7873 14.39672,17.23609 15.50254,19.02702 0.62276,1.00914 3.66157,4.7708 6.75302,8.35925 20.1565,23.39796 29.08544,31.59288 38.65152,35.47481 6.90946,2.80387 12.28944,3.74244 12.26563,2.13958 -0.0256,-1.7013 -2.38501,-14.60765 -4.11899,-22.53028 -2.2436,-10.25099 -1.5206,-21.68085 1.91898,-30.33303 2.52352,-6.34796 2.55062,-6.59031 1.04229,-9.33332 -1.91725,-3.48658 -5.9578,-5.68451 -12.54025,-6.8217 -9.84803,-1.70123 -12.91101,-2.57463 -17.09079,-4.87354 -3.11853,-1.71511 -3.9599,-2.55882 -3.20458,-3.21383 1.10279,-0.95635 12.61897,0.30513 19.92306,2.18246 2.83294,0.72814 6.22665,0.76724 13.73122,0.15819 7.1491,-0.5802 13.46299,-0.54506 22.32602,0.12427 6.79696,0.51328 14.82971,0.92586 17.85058,0.91689 7.47289,-0.0222 31.13964,-4.92426 38.51879,-7.9782 10.15926,-4.20479 21.90953,-15.16891 28.64698,-26.73134 2.23836,-3.84121 2.57506,-6.17608 0.55707,-3.86304 -7.22032,8.2759 -16.51132,17.11861 -18.88041,17.96961 -2.31252,0.83068 -5.77049,0.84672 -18.07028,0.0837 -20.72222,-1.28563 -22.07611,-1.25476 -22.07611,0.50401 0,3.87669 -2.54156,3.996 -44.39756,2.08385 -27.81394,-1.27063 -31.58178,-1.81974 -31.58178,-4.6025 0,-0.78012 -2.65845,-1.19316 -10.25447,-1.59326 -13.98203,-0.73646 -28.55633,-2.5859 -31.78409,-4.0334 -3.72894,-1.67225 -7.90276,-6.45513 -15.06222,-17.2599 -3.38548,-5.10955 -7.79576,-11.00357 -9.80043,-13.09854 -2.00474,-2.09466 -3.88226,-4.61227 -4.17217,-5.59467 -0.49799,-1.68781 -1.30301,-2.10545 -3.61379,-1.87484 -1.16962,0.11673 -3.51674,-2.09544 -4.32789,-4.07904 -0.78506,-1.91961 0.18455,-1.74584 4.42556,0.79304 2.93565,1.75749 4.62532,2.17269 8.68006,2.13322 13.15267,-0.12819 27.84324,-2.91493 41.84816,-7.93818 8.47031,-3.03815 17.03493,-4.53464 18.53071,-3.23772 1.15352,1.00033 1.24643,8.40608 0.12468,9.94218 -0.62915,0.86149 -1.14215,0.64583 -2.38895,-1.00438 -0.87331,-1.15577 -1.58778,-2.99559 -1.58778,-4.08841 0,-2.83548 -1.28232,-3.14555 -1.90178,-0.45979 -0.63063,2.73481 -5.82551,4.85258 -11.90312,4.85258 -2.16002,0 -6.422,0.84783 -9.47088,1.88412 -3.04915,1.0363 -7.70596,2.36465 -10.34876,2.95202 -2.64261,0.58734 -5.00091,1.51125 -5.24074,2.05305 -0.62322,1.40845 6.89755,13.36607 10.83941,17.2345 l 3.32671,3.26439 15.05856,0.26454 c 8.88987,0.15616 16.55527,-0.085 18.71198,-0.58851 4.4166,-1.03137 9.62009,-5.35111 12.36175,-10.26291 1.97089,-3.53057 1.97565,-3.61702 0.24396,-4.44548 -2.96457,-1.41837 -9.6741,-7.65677 -9.29969,-8.64663 0.55035,-1.45416 6.99779,-1.56944 11.1351,-0.19906 2.06032,0.68234 5.59427,1.39456 7.85333,1.58269 2.25907,0.18814 6.95238,1.50102 10.42931,2.91756 l 6.32222,2.5755 6.03587,-1.44577 c 3.31975,-0.79511 8.30153,-1.76124 11.07102,-2.14689 2.76913,-0.38562 8.70312,-1.28366 13.18651,-1.99574 l 8.15176,-1.2946 1.68225,1.80164 c 1.15471,1.23658 1.42603,2.19865 0.86529,3.06759 -0.92402,1.43196 -8.87733,4.0877 -14.0452,4.68991 -2.63181,0.30671 -3.4328,0.76027 -3.4328,1.94383 0,4.13882 8.94039,14.61638 14.19074,16.63038 4.95981,1.90278 20.34966,2.78816 27.15119,1.56206 4.88336,-0.8803 5.62549,-1.34868 12.8158,-8.08855 8.4922,-7.96073 10.10799,-10.40897 8.04282,-12.1864 -0.72932,-0.62756 -8.32899,-4.15605 -16.88847,-7.8411 -8.55912,-3.68506 -16.34654,-7.45275 -17.3059,-8.37275 -2.57342,-2.46824 -4.20395,-2.11767 -4.22033,0.90738 -0.007,1.419 -0.41335,3.11586 -0.9014,3.77078 -0.65777,0.88269 -0.93052,0.3178 -1.05401,-2.18309 -0.0917,-1.85562 -0.20092,-3.9429 -0.24289,-4.63846 -0.0975,-1.6174 6.37577,-3.61702 9.51757,-2.93987 1.26868,0.27345 6.63199,2.37527 11.91869,4.67077 5.28651,2.29551 15.37895,6.03803 22.42765,8.31718 15.01828,4.85527 21.10395,5.39358 27.69127,2.44951 2.13978,-0.95635 3.89051,-1.54881 3.89051,-1.31668 0,0.23211 -1.64775,2.51539 -3.66166,5.07398 -3.17374,4.03212 -3.66165,5.23155 -3.66165,9.00147 0,5.23052 -1.01794,7.93819 -5.7434,15.27686 -8.2304,12.7818 -20.11531,27.33546 -34.05798,41.70417 -3.60106,3.71125 -7.91266,8.48705 -9.58165,10.61298 -4.11707,5.24521 -14.60634,14.79024 -16.25317,14.79024 -4.02287,0 6.84052,-18.95875 18.14808,-31.67148 2.95304,-3.32003 5.37129,-6.43383 5.37404,-6.91959 0.002,-0.51327 -3.3496,0.22375 -8.00493,1.7598 -4.40544,1.45363 -8.80116,2.6548 -9.76839,2.66925 -0.96713,0.0145 -4.31132,1.1048 -7.43142,2.42299 -3.90617,1.65026 -8.20513,2.67369 -13.80353,3.28615 -4.47179,0.48922 -9.63656,1.54419 -11.47654,2.34431 -3.4977,1.52063 -7.18096,4.95721 -7.18096,6.70002 0,0.55967 -0.51492,1.16657 -1.14426,1.34876 -0.90627,0.2623 -0.88339,1.14283 0.11025,4.23384 3.37385,10.4963 3.39601,15.55075 0.10743,24.5427 -2.19709,6.0077 -7.68509,30.50451 -6.97244,31.12212 1.06271,0.92158 11.25594,-1.43687 17.51096,-4.05165 8.96125,-3.74595 16.42344,-9.5802 22.88533,-17.89261 7.1645,-9.21661 19.12301,-22.87005 33.38241,-38.11356 11.58914,-12.38885 15.81287,-17.31707 23.50967,-27.42755 6.63912,-8.72125 9.26947,-11.30762 14.65486,-14.40761 4.50119,-2.59096 5.16294,-2.76378 6.41696,-1.67629 1.21063,1.0498 1.24185,1.83761 0.2327,5.86965 -0.64097,2.56145 -2.34355,6.80053 -3.78341,9.41984 -2.20834,4.01799 -2.44791,5.03841 -1.53148,6.52355 0.93802,1.51999 0.52094,2.76721 -3.05282,9.12929 -5.21181,9.27852 -10.68105,15.73253 -24.26946,28.64055 -10.29382,9.77865 -42.49627,36.74973 -54.51656,45.6607 -14.89012,11.03849 -35.56566,15.44437 -51.48288,10.97181 z m 13.56095,-51.38516 c 1.1807,-1.62613 0.0852,-5.48139 -1.55813,-5.48139 -1.53341,0 -2.36908,1.72361 -2.36908,4.88623 0,1.77768 0.37815,2.31027 1.50383,2.11816 0.82718,-0.14117 1.91762,-0.82656 2.42338,-1.523 z m -1.63868,-18.977 c -0.31115,-0.43662 -0.74743,-0.79386 -0.96942,-0.79386 -0.22199,0 -0.4037,0.35724 -0.4037,0.79386 0,0.43661 0.43628,0.79385 0.96942,0.79385 0.53323,0 0.71484,-0.35724 0.4037,-0.79385 z m 21.51223,-40.76027 c 0,-0.58727 -0.86773,-1.74831 -1.92823,-2.58003 -1.06051,-0.83179 -4.17585,-4.27773 -6.92301,-7.6578 -6.33814,-7.79816 -7.38656,-8.68075 -9.95878,-8.38545 -1.20322,0.13826 -6.41183,3.89147 -12.17867,8.77524 -5.54201,4.69364 -10.00274,8.56485 -9.91211,8.60216 1.72236,0.71138 20.45128,2.12483 29.22917,2.2058 9.2283,0.0852 11.67153,-0.11578 11.67153,-0.95992 z m -75.95373,49.01155 c -1.74799,-1.04542 -3.81957,-1.9008 -4.60353,-1.9008 -3.60261,0 -15.6069,-12.99772 -23.82823,-25.80014 -3.02278,-4.70738 -11.86468,-16.34937 -14.16786,-18.65551 -0.65425,-0.65492 -2.13447,-2.79831 -3.28945,-4.7631 -1.15507,-1.96478 -3.23654,-4.82265 -4.62569,-6.3508 -4.93316,-5.42709 -14.16328,-24.90231 -13.268,-27.99516 0.29165,-1.00771 1.83934,-2.67154 3.4393,-3.69736 l 2.909,-1.86507 1.63878,1.88413 c 0.90141,1.03629 5.23195,7.96152 9.62374,15.38958 12.84143,21.71977 18.10598,27.57203 30.83481,34.27769 6.41779,3.38085 5.86854,4.25711 -1.16193,1.85396 -5.11653,-1.74893 -6.49587,-1.57198 -4.91147,0.63006 0.53551,0.74422 4.49706,6.77638 8.80344,13.40497 4.30638,6.62841 9.04685,13.59469 10.53459,15.48009 3.45284,4.37666 5.89984,8.51086 5.53514,9.35235 -0.15645,0.36091 -1.71457,-0.19914 -3.46255,-1.2446 z M 775.10119,503.91125 c -4.93619,-1.69225 -12.00931,-2.11339 -20.2819,-1.2076 l -5.49249,0.60133 4.57706,-2.25723 c 4.2921,-2.11672 4.56472,-2.43966 4.37815,-5.1871 -0.47615,-7.01375 -8.26453,-14.38855 -19.64203,-18.59913 l -6.84199,-2.53191 -9.54411,0.76513 c -15.39909,1.23451 -26.08198,4.31839 -32.2006,9.29598 -2.89244,2.35298 -3.05584,3.3083 -1.12074,6.55332 1.78057,2.98599 0.72822,2.97694 -3.06361,-0.0265 -2.64409,-2.09425 -2.86617,-2.577 -1.91734,-4.16772 2.52682,-4.23622 7.35278,-6.73296 20.18671,-10.4431 18.80992,-5.4382 31.1909,-5.69454 42.76265,-0.88531 6.56297,2.72752 8.07038,4.03221 14.22095,12.30787 l 3.83505,5.16003 5.252,-0.0934 c 3.64279,-0.0647 5.80592,-0.52813 7.06004,-1.51228 0.99432,-0.78039 1.80794,-1.09226 1.80794,-0.69297 0,0.39927 -0.82387,1.17213 -1.83083,1.71751 -1.87349,1.01461 -2.56527,4.1535 -0.91541,4.1535 0.5035,0 0.91541,0.32379 0.91541,0.71952 0,0.39575 -0.72088,0.56973 -1.60197,0.38662 -0.88109,-0.18311 -2.21988,0.0267 -2.9751,0.46626 -1.38603,0.80671 -1.06444,1.11767 6.35334,6.14242 1.83082,1.24016 1.44398,1.17459 -3.92173,-0.66495 z m -212.52252,-7.14918 c -3.52434,-0.87751 -9.39398,-1.78902 -13.04466,-2.02559 -4.81946,-0.31236 -6.63675,-0.73245 -6.63675,-1.53419 0,-0.6072 -0.72088,-1.15839 -1.60196,-1.22492 -0.88109,-0.0665 -2.19032,-0.15719 -2.90947,-0.20154 -0.71914,-0.0444 -1.87522,-1.28715 -2.5691,-2.76188 -1.23957,-2.63447 -1.22483,-2.67083 0.84978,-2.08354 8.18718,2.31781 12.91465,1.00008 16.75207,-4.66943 3.31755,-4.90204 9.43608,-9.67546 15.45676,-12.05781 5.11524,-2.02455 5.90626,-2.10925 16.01975,-1.71511 15.60506,0.60811 18.39067,2.04893 3.77315,1.95129 -13.77332,-0.092 -19.31706,1.39035 -25.74144,6.88332 -4.93765,4.22145 -8.94103,11.09962 -7.56315,12.99454 1.35665,1.86499 6.35361,3.91479 13.16548,5.40073 3.27261,0.71384 6.34153,1.62049 6.81984,2.0148 1.5433,1.2723 -6.09418,0.6921 -12.77002,-0.97009 z m 178.79867,-1.86912 c -5.60911,-2.73974 -21.374,-3.5012 -30.95838,-1.49513 -6.10765,1.27841 -6.31774,1.26825 -12.94671,-0.62237 -5.33787,-1.52237 -6.73836,-2.2462 -6.73836,-3.48254 0,-2.13935 9.2292,-5.99961 19.63564,-8.21239 7.25044,-1.54198 8.95594,-1.63296 16.57906,-0.88403 4.67355,0.45912 10.38354,1.55547 12.68855,2.43632 9.56517,3.65537 14.98075,8.55931 12.58694,11.39812 -1.57003,1.86205 -7.78834,2.35654 -10.84674,0.86259 z m -120.66988,-2.44569 c 0,-0.27542 0.88868,-1.5831 1.97483,-2.90589 1.22858,-1.49626 1.93646,-3.49247 1.87339,-5.2826 l -0.10166,-2.87747 1.78835,1.87411 c 3.21275,3.36681 2.05484,6.2885 -3.47527,8.76889 -1.13282,0.50809 -2.05969,0.69843 -2.05969,0.42301 z M 561.20555,489.914 c -4.89784,-2.12181 -4.5692,-4.0172 1.3419,-7.73878 6.99551,-4.40436 12.45513,-6.05914 21.57265,-6.53799 6.05848,-0.31823 9.48278,-0.0435 15.26636,1.22483 8.60681,1.88747 16.68892,5.10867 19.63014,7.82419 1.81142,1.67218 1.88933,2.02305 0.6818,3.07022 -2.06746,1.79291 -11.47563,3.31536 -13.54904,2.19246 -3.24075,-1.75512 -12.77919,-2.79293 -22.66749,-2.46618 -7.94213,0.26242 -10.68563,0.67573 -13.77148,2.07473 -4.63218,2.09974 -4.49358,2.09395 -8.50402,0.35656 z m 112.59592,-17.56395 c 0,-3.42809 1.75742,-5.6835 6.9069,-8.86413 1.02965,-0.63604 3.00869,-2.46587 4.39783,-4.06627 2.39518,-2.75943 2.43372,-2.93511 0.74632,-3.39959 -2.27636,-0.62653 -3.17484,-4.38769 -1.44709,-6.05787 2.0011,-1.93445 1.56308,-2.43379 -1.67869,-1.91382 -1.84976,0.2967 -3.6014,0.0763 -4.63096,-0.58296 -1.59429,-1.02073 -1.59026,-1.19212 0.11013,-4.60894 2.6363,-5.29753 9.79308,-12.32613 15.74053,-15.45945 6.50951,-3.4292 15.31854,-6.34605 25.57666,-8.4688 9.82148,-2.0325 27.73248,-2.14769 35.61511,-0.22915 6.90176,1.67979 14.49009,6.32246 18.5765,11.36557 5.90972,7.29279 9.21547,22.81367 5.31132,24.93564 -1.05493,0.57322 -2.5173,0.10084 -5.68838,-1.8376 l -4.26849,-2.60915 -6.31755,1.03375 c -3.47463,0.56854 -8.74165,0.85799 -11.70449,0.64316 -7.26207,-0.52654 -18.35588,0.62434 -27.92103,2.89652 -8.34868,1.9832 -10.58311,2.82031 -14.99723,5.61919 -4.68144,2.96813 -10.15469,4.36142 -17.18232,4.37388 -8.16733,0.0145 -10.67372,1.03907 -13.05746,5.33722 -2.97609,5.3673 -4.08833,5.88243 -4.08833,1.89341 z m -41.38769,-2.3733 c -1.36215,-1.25158 -4.03835,-2.89445 -5.94718,-3.65084 -1.90881,-0.75641 -5.27983,-2.11085 -7.4912,-3.00988 -2.21127,-0.89903 -6.12467,-3.39086 -8.69643,-5.53735 -5.76537,-4.81208 -7.94506,-5.82671 -14.06075,-6.54514 -2.64454,-0.31064 -9.02956,-1.81641 -14.18893,-3.34609 -14.97983,-4.44135 -25.82565,-4.3603 -38.58012,0.28816 l -5.39857,1.96755 -1.88703,-1.63636 c -2.81013,-2.43705 -2.68472,-11.64977 0.23608,-17.32977 2.34685,-4.56368 7.69855,-9.25233 12.57963,-11.02103 7.14709,-2.5897 22.65467,-5.24989 27.86612,-4.7801 14.33813,1.29264 23.37144,4.11827 41.72458,13.0517 13.66896,6.65311 15.70484,8.83319 10.83392,11.60055 -2.82415,1.6047 -3.12724,5.4274 -0.5542,6.99025 1.97153,1.19753 2.15965,5.50346 0.31051,7.10704 -1.83431,1.5908 -1.33284,2.99638 2.37111,6.64548 3.07186,3.0264 5.6536,7.85824 5.6536,10.58123 0,1.60104 -2.23197,0.95763 -4.77114,-1.37534 z"
       id="path3072"
       inkscape:connector-curvature="0"
       style="fill:#cccccc" />
  </g>
</svg>
